<svg width="801" height="101" viewBox="0 0 801 101" fill="none" xmlns="http://www.w3.org/2000/svg">
<path fill-rule="evenodd" clip-rule="evenodd" d="M519.425 -468C609.56 -467.996 701.577 -439.965 756.327 -368.456C809.962 -298.402 807.96 -204.445 786.756 -118.838C766.124 -35.5397 722.809 44.2492 645.058 80.7672C568.044 116.939 480.121 97.6235 403.167 61.3249C325.312 24.6012 254.977 -31.399 231.731 -114.197C207.149 -201.751 225.099 -297.891 282.497 -368.477C339.322 -438.361 429.284 -468.004 519.425 -468Z" fill="#B7E6DD"/>
<path fill-rule="evenodd" clip-rule="evenodd" d="M452.908 -523.633C502.831 -518.682 535.927 -470.096 570.995 -434.018C599.042 -405.163 611.552 -366.54 636.399 -334.856C666.411 -296.586 728.543 -276.902 732.319 -228.308C736.02 -180.681 680.427 -151.21 653.742 -111.689C629.215 -75.3629 611.789 -36.0753 581.301 -4.64475C542.846 34.9997 507.252 104.313 452.908 95.3566C394.669 85.758 391.984 -5.23407 346.71 -43.3087C312.285 -72.2595 257.544 -64.7803 225.242 -96.1081C188.971 -131.285 162.22 -178.024 155.959 -228.308C149.401 -280.981 158.971 -337.994 189.756 -381.113C219.809 -423.206 275.198 -434.288 320.562 -458.857C364.508 -482.657 403.237 -528.56 452.908 -523.633Z" fill="#CFEFE8"/>
<path fill-rule="evenodd" clip-rule="evenodd" d="M254.456 -403.632C307.814 -406.765 364.234 -389.902 402.224 -352.264C438.112 -316.708 425.991 -257.073 448.202 -211.681C476.415 -154.021 552.927 -117.027 548.673 -52.9627C544.427 10.9874 487.068 65.6052 428.129 90.6336C373.184 113.966 314.02 75.7544 254.456 71.9757C200.439 68.5489 141.911 98.3791 96.0718 69.568C49.6596 40.397 36.308 -20.1685 23.1285 -73.4185C10.7843 -123.294 5.85877 -175.529 23.4635 -223.796C40.6721 -270.976 79.1592 -304.788 118.765 -335.623C159.696 -367.489 202.693 -400.594 254.456 -403.632Z" fill="#E7F7F4"/>
</svg>
